<?xml version="1.0" encoding="utf-8"?>
<svg xmlns="http://www.w3.org/2000/svg" xmlns:xlink="http://www.w3.org/1999/xlink" width="650" height="550" viewBox="0 0 2600 2200">
<defs>
  <clipPath id="clip420">
    <rect x="0" y="0" width="2600" height="2200"/>
  </clipPath>
</defs>
<path clip-path="url(#clip420)" d="M0 2200 L2600 2200 L2600 0 L0 0  Z" fill="#ffffff" fill-rule="evenodd" fill-opacity="1"/>
<defs>
  <clipPath id="clip421">
    <rect x="304" y="137" width="2217" height="1763"/>
  </clipPath>
</defs>
<path clip-path="url(#clip420)" d="M304.973 1899.34 L2521.26 1899.34 L2521.26 137.474 L304.973 137.474  Z" fill="#ffffff" fill-rule="evenodd" fill-opacity="1"/>
<polyline clip-path="url(#clip421)" style="stroke:#000000; stroke-linecap:round; stroke-linejoin:round; stroke-width:2.8; stroke-opacity:0.2; fill:none" points="304.973,1735.6 2521.26,1735.6 "/>
<polyline clip-path="url(#clip421)" style="stroke:#000000; stroke-linecap:round; stroke-linejoin:round; stroke-width:2.8; stroke-opacity:0.2; fill:none" points="304.973,1377 2521.26,1377 "/>
<polyline clip-path="url(#clip421)" style="stroke:#000000; stroke-linecap:round; stroke-linejoin:round; stroke-width:2.8; stroke-opacity:0.2; fill:none" points="304.973,1018.4 2521.26,1018.4 "/>
<polyline clip-path="url(#clip421)" style="stroke:#000000; stroke-linecap:round; stroke-linejoin:round; stroke-width:2.8; stroke-opacity:0.2; fill:none" points="304.973,659.808 2521.26,659.808 "/>
<polyline clip-path="url(#clip421)" style="stroke:#000000; stroke-linecap:round; stroke-linejoin:round; stroke-width:2.8; stroke-opacity:0.2; fill:none" points="304.973,301.212 2521.26,301.212 "/>
<polyline clip-path="url(#clip420)" style="stroke:#000000; stroke-linecap:round; stroke-linejoin:round; stroke-width:4; stroke-opacity:1; fill:none" points="304.973,1899.34 2521.26,1899.34 "/>
<polyline clip-path="url(#clip420)" style="stroke:#000000; stroke-linecap:round; stroke-linejoin:round; stroke-width:4; stroke-opacity:1; fill:none" points="528.026,1899.34 528.026,1918.23 "/>
<polyline clip-path="url(#clip420)" style="stroke:#000000; stroke-linecap:round; stroke-linejoin:round; stroke-width:4; stroke-opacity:1; fill:none" points="780.909,1899.34 780.909,1918.23 "/>
<polyline clip-path="url(#clip420)" style="stroke:#000000; stroke-linecap:round; stroke-linejoin:round; stroke-width:4; stroke-opacity:1; fill:none" points="1033.79,1899.34 1033.79,1918.23 "/>
<polyline clip-path="url(#clip420)" style="stroke:#000000; stroke-linecap:round; stroke-linejoin:round; stroke-width:4; stroke-opacity:1; fill:none" points="1286.67,1899.34 1286.67,1918.23 "/>
<polyline clip-path="url(#clip420)" style="stroke:#000000; stroke-linecap:round; stroke-linejoin:round; stroke-width:4; stroke-opacity:1; fill:none" points="1539.56,1899.34 1539.56,1918.23 "/>
<polyline clip-path="url(#clip420)" style="stroke:#000000; stroke-linecap:round; stroke-linejoin:round; stroke-width:4; stroke-opacity:1; fill:none" points="1792.44,1899.34 1792.44,1918.23 "/>
<polyline clip-path="url(#clip420)" style="stroke:#000000; stroke-linecap:round; stroke-linejoin:round; stroke-width:4; stroke-opacity:1; fill:none" points="2045.32,1899.34 2045.32,1918.23 "/>
<polyline clip-path="url(#clip420)" style="stroke:#000000; stroke-linecap:round; stroke-linejoin:round; stroke-width:4; stroke-opacity:1; fill:none" points="2298.21,1899.34 2298.21,1918.23 "/>
<g clip-path="url(#clip420)">
<text style="fill:#000000; fill-opacity:1; font-family:Arial,Helvetica Neue,Helvetica,sans-serif; font-size:48px; text-anchor:middle;" transform="rotate(-90, 545.526, 1997.44)" x="545.526" y="1997.44">gene1</text>
</g>
<g clip-path="url(#clip420)">
<text style="fill:#000000; fill-opacity:1; font-family:Arial,Helvetica Neue,Helvetica,sans-serif; font-size:48px; text-anchor:middle;" transform="rotate(-90, 798.409, 1997.44)" x="798.409" y="1997.44">gene4</text>
</g>
<g clip-path="url(#clip420)">
<text style="fill:#000000; fill-opacity:1; font-family:Arial,Helvetica Neue,Helvetica,sans-serif; font-size:48px; text-anchor:middle;" transform="rotate(-90, 1051.29, 1997.44)" x="1051.29" y="1997.44">gene7</text>
</g>
<g clip-path="url(#clip420)">
<text style="fill:#000000; fill-opacity:1; font-family:Arial,Helvetica Neue,Helvetica,sans-serif; font-size:48px; text-anchor:middle;" transform="rotate(-90, 1304.17, 1997.44)" x="1304.17" y="1997.44">gene9</text>
</g>
<g clip-path="url(#clip420)">
<text style="fill:#000000; fill-opacity:1; font-family:Arial,Helvetica Neue,Helvetica,sans-serif; font-size:48px; text-anchor:middle;" transform="rotate(-90, 1557.06, 2010.82)" x="1557.06" y="2010.82">gene15</text>
</g>
<g clip-path="url(#clip420)">
<text style="fill:#000000; fill-opacity:1; font-family:Arial,Helvetica Neue,Helvetica,sans-serif; font-size:48px; text-anchor:middle;" transform="rotate(-90, 1809.94, 2010.82)" x="1809.94" y="2010.82">gene17</text>
</g>
<g clip-path="url(#clip420)">
<text style="fill:#000000; fill-opacity:1; font-family:Arial,Helvetica Neue,Helvetica,sans-serif; font-size:48px; text-anchor:middle;" transform="rotate(-90, 2062.82, 2010.82)" x="2062.82" y="2010.82">gene19</text>
</g>
<g clip-path="url(#clip420)">
<text style="fill:#000000; fill-opacity:1; font-family:Arial,Helvetica Neue,Helvetica,sans-serif; font-size:48px; text-anchor:middle;" transform="rotate(-90, 2315.71, 2010.82)" x="2315.71" y="2010.82">gene20</text>
</g>
<g clip-path="url(#clip420)">
<text style="fill:#000000; fill-opacity:1; font-family:Arial,Helvetica Neue,Helvetica,sans-serif; font-size:89px; text-anchor:middle;" transform="rotate(0, 1413.12, 2180.22)" x="1413.12" y="2180.22">Variable</text>
</g>
<polyline clip-path="url(#clip420)" style="stroke:#000000; stroke-linecap:round; stroke-linejoin:round; stroke-width:4; stroke-opacity:1; fill:none" points="304.973,1899.34 304.973,137.474 "/>
<polyline clip-path="url(#clip420)" style="stroke:#000000; stroke-linecap:round; stroke-linejoin:round; stroke-width:4; stroke-opacity:1; fill:none" points="304.973,1735.6 286.075,1735.6 "/>
<polyline clip-path="url(#clip420)" style="stroke:#000000; stroke-linecap:round; stroke-linejoin:round; stroke-width:4; stroke-opacity:1; fill:none" points="304.973,1377 286.075,1377 "/>
<polyline clip-path="url(#clip420)" style="stroke:#000000; stroke-linecap:round; stroke-linejoin:round; stroke-width:4; stroke-opacity:1; fill:none" points="304.973,1018.4 286.075,1018.4 "/>
<polyline clip-path="url(#clip420)" style="stroke:#000000; stroke-linecap:round; stroke-linejoin:round; stroke-width:4; stroke-opacity:1; fill:none" points="304.973,659.808 286.075,659.808 "/>
<polyline clip-path="url(#clip420)" style="stroke:#000000; stroke-linecap:round; stroke-linejoin:round; stroke-width:4; stroke-opacity:1; fill:none" points="304.973,301.212 286.075,301.212 "/>
<g clip-path="url(#clip420)">
<text style="fill:#000000; fill-opacity:1; font-family:Arial,Helvetica Neue,Helvetica,sans-serif; font-size:48px; text-anchor:middle;" transform="rotate(0, 186.258, 1753.1)" x="186.258" y="1753.1">−0.50</text>
</g>
<g clip-path="url(#clip420)">
<text style="fill:#000000; fill-opacity:1; font-family:Arial,Helvetica Neue,Helvetica,sans-serif; font-size:48px; text-anchor:middle;" transform="rotate(0, 186.258, 1394.5)" x="186.258" y="1394.5">−0.25</text>
</g>
<g clip-path="url(#clip420)">
<text style="fill:#000000; fill-opacity:1; font-family:Arial,Helvetica Neue,Helvetica,sans-serif; font-size:48px; text-anchor:middle;" transform="rotate(0, 199.639, 1035.9)" x="199.639" y="1035.9">0.00</text>
</g>
<g clip-path="url(#clip420)">
<text style="fill:#000000; fill-opacity:1; font-family:Arial,Helvetica Neue,Helvetica,sans-serif; font-size:48px; text-anchor:middle;" transform="rotate(0, 199.639, 677.308)" x="199.639" y="677.308">0.25</text>
</g>
<g clip-path="url(#clip420)">
<text style="fill:#000000; fill-opacity:1; font-family:Arial,Helvetica Neue,Helvetica,sans-serif; font-size:48px; text-anchor:middle;" transform="rotate(0, 199.639, 318.712)" x="199.639" y="318.712">0.50</text>
</g>
<g clip-path="url(#clip420)">
<text style="fill:#000000; fill-opacity:1; font-family:Arial,Helvetica Neue,Helvetica,sans-serif; font-size:89px; text-anchor:middle;" transform="rotate(-90, 90.2306, 1018.4)" x="90.2306" y="1018.4">Loading on PC 3</text>
</g>
<g clip-path="url(#clip420)">
<text style="fill:#000000; fill-opacity:1; font-family:Arial,Helvetica Neue,Helvetica,sans-serif; font-size:84px; text-anchor:middle;" transform="rotate(0, 1413.12, 73.2)" x="1413.12" y="73.2">the eight largest contributors to PC 3</text>
</g>
<polyline clip-path="url(#clip421)" style="stroke:#737373; stroke-linecap:round; stroke-linejoin:round; stroke-width:4; stroke-opacity:1; fill:none" points="-1911.31,1018.4 4737.55,1018.4 "/>
<path clip-path="url(#clip421)" d="M426.873 1372.47 L426.873 1018.4 L629.179 1018.4 L629.179 1372.47 L426.873 1372.47 L426.873 1372.47  Z" fill="#4292c6" fill-rule="evenodd" fill-opacity="1"/>
<polyline clip-path="url(#clip421)" style="stroke:#4292c6; stroke-linecap:round; stroke-linejoin:round; stroke-width:4; stroke-opacity:1; fill:none" points="426.873,1372.47 426.873,1018.4 629.179,1018.4 629.179,1372.47 426.873,1372.47 "/>
<path clip-path="url(#clip421)" d="M679.756 1563.5 L679.756 1018.4 L882.062 1018.4 L882.062 1563.5 L679.756 1563.5 L679.756 1563.5  Z" fill="#4292c6" fill-rule="evenodd" fill-opacity="1"/>
<polyline clip-path="url(#clip421)" style="stroke:#4292c6; stroke-linecap:round; stroke-linejoin:round; stroke-width:4; stroke-opacity:1; fill:none" points="679.756,1563.5 679.756,1018.4 882.062,1018.4 882.062,1563.5 679.756,1563.5 "/>
<path clip-path="url(#clip421)" d="M932.639 708.342 L932.639 1018.4 L1134.95 1018.4 L1134.95 708.342 L932.639 708.342 L932.639 708.342  Z" fill="#4292c6" fill-rule="evenodd" fill-opacity="1"/>
<polyline clip-path="url(#clip421)" style="stroke:#4292c6; stroke-linecap:round; stroke-linejoin:round; stroke-width:4; stroke-opacity:1; fill:none" points="932.639,708.342 932.639,1018.4 1134.95,1018.4 1134.95,708.342 932.639,708.342 "/>
<path clip-path="url(#clip421)" d="M1185.52 1330.16 L1185.52 1018.4 L1387.83 1018.4 L1387.83 1330.16 L1185.52 1330.16 L1185.52 1330.16  Z" fill="#4292c6" fill-rule="evenodd" fill-opacity="1"/>
<polyline clip-path="url(#clip421)" style="stroke:#4292c6; stroke-linecap:round; stroke-linejoin:round; stroke-width:4; stroke-opacity:1; fill:none" points="1185.52,1330.16 1185.52,1018.4 1387.83,1018.4 1387.83,1330.16 1185.52,1330.16 "/>
<path clip-path="url(#clip421)" d="M1438.4 554.424 L1438.4 1018.4 L1640.71 1018.4 L1640.71 554.424 L1438.4 554.424 L1438.4 554.424  Z" fill="#4292c6" fill-rule="evenodd" fill-opacity="1"/>
<polyline clip-path="url(#clip421)" style="stroke:#4292c6; stroke-linecap:round; stroke-linejoin:round; stroke-width:4; stroke-opacity:1; fill:none" points="1438.4,554.424 1438.4,1018.4 1640.71,1018.4 1640.71,554.424 1438.4,554.424 "/>
<path clip-path="url(#clip421)" d="M1691.29 252.378 L1691.29 1018.4 L1893.59 1018.4 L1893.59 252.378 L1691.29 252.378 L1691.29 252.378  Z" fill="#4292c6" fill-rule="evenodd" fill-opacity="1"/>
<polyline clip-path="url(#clip421)" style="stroke:#4292c6; stroke-linecap:round; stroke-linejoin:round; stroke-width:4; stroke-opacity:1; fill:none" points="1691.29,252.378 1691.29,1018.4 1893.59,1018.4 1893.59,252.378 1691.29,252.378 "/>
<path clip-path="url(#clip421)" d="M1944.17 568.716 L1944.17 1018.4 L2146.48 1018.4 L2146.48 568.716 L1944.17 568.716 L1944.17 568.716  Z" fill="#4292c6" fill-rule="evenodd" fill-opacity="1"/>
<polyline clip-path="url(#clip421)" style="stroke:#4292c6; stroke-linecap:round; stroke-linejoin:round; stroke-width:4; stroke-opacity:1; fill:none" points="1944.17,568.716 1944.17,1018.4 2146.48,1018.4 2146.48,568.716 1944.17,568.716 "/>
<path clip-path="url(#clip421)" d="M2197.05 1379.56 L2197.05 1018.4 L2399.36 1018.4 L2399.36 1379.56 L2197.05 1379.56 L2197.05 1379.56  Z" fill="#4292c6" fill-rule="evenodd" fill-opacity="1"/>
<polyline clip-path="url(#clip421)" style="stroke:#4292c6; stroke-linecap:round; stroke-linejoin:round; stroke-width:4; stroke-opacity:1; fill:none" points="2197.05,1379.56 2197.05,1018.4 2399.36,1018.4 2399.36,1379.56 2197.05,1379.56 "/>
<circle clip-path="url(#clip421)" style="fill:#4292c6; stroke:none; fill-opacity:0" cx="528.026" cy="1372.47" r="2"/>
<circle clip-path="url(#clip421)" style="fill:#4292c6; stroke:none; fill-opacity:0" cx="780.909" cy="1563.5" r="2"/>
<circle clip-path="url(#clip421)" style="fill:#4292c6; stroke:none; fill-opacity:0" cx="1033.79" cy="708.342" r="2"/>
<circle clip-path="url(#clip421)" style="fill:#4292c6; stroke:none; fill-opacity:0" cx="1286.67" cy="1330.16" r="2"/>
<circle clip-path="url(#clip421)" style="fill:#4292c6; stroke:none; fill-opacity:0" cx="1539.56" cy="554.424" r="2"/>
<circle clip-path="url(#clip421)" style="fill:#4292c6; stroke:none; fill-opacity:0" cx="1792.44" cy="252.378" r="2"/>
<circle clip-path="url(#clip421)" style="fill:#4292c6; stroke:none; fill-opacity:0" cx="2045.32" cy="568.716" r="2"/>
<circle clip-path="url(#clip421)" style="fill:#4292c6; stroke:none; fill-opacity:0" cx="2298.21" cy="1379.56" r="2"/>
</svg>
