<?xml version="1.0" encoding="utf-8"?>
<svg xmlns="http://www.w3.org/2000/svg" xmlns:xlink="http://www.w3.org/1999/xlink" width="550" height="450" viewBox="0 0 2200 1800">
<defs>
  <clipPath id="clip360">
    <rect x="0" y="0" width="2200" height="1800"/>
  </clipPath>
</defs>
<path clip-path="url(#clip360)" d="M0 1800 L2200 1800 L2200 0 L0 0  Z" fill="#ffffff" fill-rule="evenodd" fill-opacity="1"/>
<defs>
  <clipPath id="clip361">
    <rect x="224" y="135" width="1898" height="1487"/>
  </clipPath>
</defs>
<path clip-path="url(#clip360)" d="M224.233 1621.27 L2121.26 1621.27 L2121.26 135.012 L224.233 135.012  Z" fill="#ffffff" fill-rule="evenodd" fill-opacity="1"/>
<polyline clip-path="url(#clip361)" style="stroke:#000000; stroke-linecap:round; stroke-linejoin:round; stroke-width:2.8; stroke-opacity:0.2; fill:none" points="224.233,1621.27 2121.26,1621.27 "/>
<polyline clip-path="url(#clip361)" style="stroke:#000000; stroke-linecap:round; stroke-linejoin:round; stroke-width:2.8; stroke-opacity:0.2; fill:none" points="224.233,1324.02 2121.26,1324.02 "/>
<polyline clip-path="url(#clip361)" style="stroke:#000000; stroke-linecap:round; stroke-linejoin:round; stroke-width:2.8; stroke-opacity:0.2; fill:none" points="224.233,1026.76 2121.26,1026.76 "/>
<polyline clip-path="url(#clip361)" style="stroke:#000000; stroke-linecap:round; stroke-linejoin:round; stroke-width:2.8; stroke-opacity:0.2; fill:none" points="224.233,729.514 2121.26,729.514 "/>
<polyline clip-path="url(#clip361)" style="stroke:#000000; stroke-linecap:round; stroke-linejoin:round; stroke-width:2.8; stroke-opacity:0.2; fill:none" points="224.233,432.263 2121.26,432.263 "/>
<polyline clip-path="url(#clip361)" style="stroke:#000000; stroke-linecap:round; stroke-linejoin:round; stroke-width:2.8; stroke-opacity:0.2; fill:none" points="224.233,135.012 2121.26,135.012 "/>
<polyline clip-path="url(#clip360)" style="stroke:#000000; stroke-linecap:round; stroke-linejoin:round; stroke-width:4; stroke-opacity:1; fill:none" points="224.233,1621.27 2121.26,1621.27 "/>
<polyline clip-path="url(#clip360)" style="stroke:#000000; stroke-linecap:round; stroke-linejoin:round; stroke-width:4; stroke-opacity:1; fill:none" points="547.433,1621.27 547.433,1640.16 "/>
<polyline clip-path="url(#clip360)" style="stroke:#000000; stroke-linecap:round; stroke-linejoin:round; stroke-width:4; stroke-opacity:1; fill:none" points="1172.75,1621.27 1172.75,1640.16 "/>
<polyline clip-path="url(#clip360)" style="stroke:#000000; stroke-linecap:round; stroke-linejoin:round; stroke-width:4; stroke-opacity:1; fill:none" points="1798.06,1621.27 1798.06,1640.16 "/>
<g clip-path="url(#clip360)">
<text style="fill:#000000; fill-opacity:1; font-family:Arial,Helvetica Neue,Helvetica,sans-serif; font-size:48px; text-anchor:middle;" transform="rotate(0, 547.433, 1690.32)" x="547.433" y="1690.32">genes</text>
</g>
<g clip-path="url(#clip360)">
<text style="fill:#000000; fill-opacity:1; font-family:Arial,Helvetica Neue,Helvetica,sans-serif; font-size:48px; text-anchor:middle;" transform="rotate(0, 1172.75, 1690.32)" x="1172.75" y="1690.32">proteins</text>
</g>
<g clip-path="url(#clip360)">
<text style="fill:#000000; fill-opacity:1; font-family:Arial,Helvetica Neue,Helvetica,sans-serif; font-size:48px; text-anchor:middle;" transform="rotate(0, 1798.06, 1690.32)" x="1798.06" y="1690.32">metabolites</text>
</g>
<g clip-path="url(#clip360)">
<text style="fill:#000000; fill-opacity:1; font-family:Arial,Helvetica Neue,Helvetica,sans-serif; font-size:66px; text-anchor:middle;" transform="rotate(0, 1172.75, 1764.13)" x="1172.75" y="1764.13">Data block</text>
</g>
<polyline clip-path="url(#clip360)" style="stroke:#000000; stroke-linecap:round; stroke-linejoin:round; stroke-width:4; stroke-opacity:1; fill:none" points="224.233,1621.27 224.233,135.012 "/>
<polyline clip-path="url(#clip360)" style="stroke:#000000; stroke-linecap:round; stroke-linejoin:round; stroke-width:4; stroke-opacity:1; fill:none" points="224.233,1621.27 205.336,1621.27 "/>
<polyline clip-path="url(#clip360)" style="stroke:#000000; stroke-linecap:round; stroke-linejoin:round; stroke-width:4; stroke-opacity:1; fill:none" points="224.233,1324.02 205.336,1324.02 "/>
<polyline clip-path="url(#clip360)" style="stroke:#000000; stroke-linecap:round; stroke-linejoin:round; stroke-width:4; stroke-opacity:1; fill:none" points="224.233,1026.76 205.336,1026.76 "/>
<polyline clip-path="url(#clip360)" style="stroke:#000000; stroke-linecap:round; stroke-linejoin:round; stroke-width:4; stroke-opacity:1; fill:none" points="224.233,729.514 205.336,729.514 "/>
<polyline clip-path="url(#clip360)" style="stroke:#000000; stroke-linecap:round; stroke-linejoin:round; stroke-width:4; stroke-opacity:1; fill:none" points="224.233,432.263 205.336,432.263 "/>
<polyline clip-path="url(#clip360)" style="stroke:#000000; stroke-linecap:round; stroke-linejoin:round; stroke-width:4; stroke-opacity:1; fill:none" points="224.233,135.012 205.336,135.012 "/>
<g clip-path="url(#clip360)">
<text style="fill:#000000; fill-opacity:1; font-family:Arial,Helvetica Neue,Helvetica,sans-serif; font-size:48px; text-anchor:middle;" transform="rotate(0, 141.28, 1638.77)" x="141.28" y="1638.77">0.0</text>
</g>
<g clip-path="url(#clip360)">
<text style="fill:#000000; fill-opacity:1; font-family:Arial,Helvetica Neue,Helvetica,sans-serif; font-size:48px; text-anchor:middle;" transform="rotate(0, 141.28, 1341.52)" x="141.28" y="1341.52">0.2</text>
</g>
<g clip-path="url(#clip360)">
<text style="fill:#000000; fill-opacity:1; font-family:Arial,Helvetica Neue,Helvetica,sans-serif; font-size:48px; text-anchor:middle;" transform="rotate(0, 141.28, 1044.26)" x="141.28" y="1044.26">0.4</text>
</g>
<g clip-path="url(#clip360)">
<text style="fill:#000000; fill-opacity:1; font-family:Arial,Helvetica Neue,Helvetica,sans-serif; font-size:48px; text-anchor:middle;" transform="rotate(0, 141.28, 747.014)" x="141.28" y="747.014">0.6</text>
</g>
<g clip-path="url(#clip360)">
<text style="fill:#000000; fill-opacity:1; font-family:Arial,Helvetica Neue,Helvetica,sans-serif; font-size:48px; text-anchor:middle;" transform="rotate(0, 141.28, 449.763)" x="141.28" y="449.763">0.8</text>
</g>
<g clip-path="url(#clip360)">
<text style="fill:#000000; fill-opacity:1; font-family:Arial,Helvetica Neue,Helvetica,sans-serif; font-size:48px; text-anchor:middle;" transform="rotate(0, 141.28, 152.512)" x="141.28" y="152.512">1.0</text>
</g>
<g clip-path="url(#clip360)">
<text style="fill:#000000; fill-opacity:1; font-family:Arial,Helvetica Neue,Helvetica,sans-serif; font-size:66px; text-anchor:middle;" transform="rotate(-90, 79.7652, 878.139)" x="79.7652" y="878.139">proportion of variation</text>
</g>
<g clip-path="url(#clip360)">
<text style="fill:#000000; fill-opacity:1; font-family:Arial,Helvetica Neue,Helvetica,sans-serif; font-size:84px; text-anchor:middle;" transform="rotate(0, 1172.75, 73.2)" x="1172.75" y="73.2">JIVE</text>
</g>
<path clip-path="url(#clip361)" d="M328.573 1099.46 L328.573 1621.27 L766.293 1621.27 L766.293 1099.46 L328.573 1099.46 L328.573 1099.46  Z" fill="#a6a6a6" fill-rule="evenodd" fill-opacity="1"/>
<polyline clip-path="url(#clip361)" style="stroke:#000000; stroke-linecap:round; stroke-linejoin:round; stroke-width:1.2; stroke-opacity:1; fill:none" points="328.573,1099.46 328.573,1621.27 766.293,1621.27 766.293,1099.46 328.573,1099.46 "/>
<path clip-path="url(#clip361)" d="M953.887 1433.16 L953.887 1621.27 L1391.61 1621.27 L1391.61 1433.16 L953.887 1433.16 L953.887 1433.16  Z" fill="#a6a6a6" fill-rule="evenodd" fill-opacity="1"/>
<polyline clip-path="url(#clip361)" style="stroke:#000000; stroke-linecap:round; stroke-linejoin:round; stroke-width:1.2; stroke-opacity:1; fill:none" points="953.887,1433.16 953.887,1621.27 1391.61,1621.27 1391.61,1433.16 953.887,1433.16 "/>
<path clip-path="url(#clip361)" d="M1579.2 1321.63 L1579.2 1621.27 L2016.92 1621.27 L2016.92 1321.63 L1579.2 1321.63 L1579.2 1321.63  Z" fill="#a6a6a6" fill-rule="evenodd" fill-opacity="1"/>
<polyline clip-path="url(#clip361)" style="stroke:#000000; stroke-linecap:round; stroke-linejoin:round; stroke-width:1.2; stroke-opacity:1; fill:none" points="1579.2,1321.63 1579.2,1621.27 2016.92,1621.27 2016.92,1321.63 1579.2,1321.63 "/>
<circle clip-path="url(#clip361)" style="fill:#009af9; stroke:none; fill-opacity:0" cx="547.433" cy="1099.46" r="2"/>
<circle clip-path="url(#clip361)" style="fill:#009af9; stroke:none; fill-opacity:0" cx="1172.75" cy="1433.16" r="2"/>
<circle clip-path="url(#clip361)" style="fill:#009af9; stroke:none; fill-opacity:0" cx="1798.06" cy="1321.63" r="2"/>
<path clip-path="url(#clip361)" d="M328.573 917.578 L328.573 1099.46 L766.293 1099.46 L766.293 917.578 L328.573 917.578 L328.573 917.578  Z" fill="#6e6e6e" fill-rule="evenodd" fill-opacity="1"/>
<polyline clip-path="url(#clip361)" style="stroke:#000000; stroke-linecap:round; stroke-linejoin:round; stroke-width:1.2; stroke-opacity:1; fill:none" points="328.573,917.578 328.573,1099.46 766.293,1099.46 766.293,917.578 328.573,917.578 "/>
<path clip-path="url(#clip361)" d="M953.887 1131.89 L953.887 1433.16 L1391.61 1433.16 L1391.61 1131.89 L953.887 1131.89 L953.887 1131.89  Z" fill="#6e6e6e" fill-rule="evenodd" fill-opacity="1"/>
<polyline clip-path="url(#clip361)" style="stroke:#000000; stroke-linecap:round; stroke-linejoin:round; stroke-width:1.2; stroke-opacity:1; fill:none" points="953.887,1131.89 953.887,1433.16 1391.61,1433.16 1391.61,1131.89 953.887,1131.89 "/>
<path clip-path="url(#clip361)" d="M1579.2 852.055 L1579.2 1321.63 L2016.92 1321.63 L2016.92 852.055 L1579.2 852.055 L1579.2 852.055  Z" fill="#6e6e6e" fill-rule="evenodd" fill-opacity="1"/>
<polyline clip-path="url(#clip361)" style="stroke:#000000; stroke-linecap:round; stroke-linejoin:round; stroke-width:1.2; stroke-opacity:1; fill:none" points="1579.2,852.055 1579.2,1321.63 2016.92,1321.63 2016.92,852.055 1579.2,852.055 "/>
<circle clip-path="url(#clip361)" style="fill:#e26f46; stroke:none; fill-opacity:0" cx="547.433" cy="917.578" r="2"/>
<circle clip-path="url(#clip361)" style="fill:#e26f46; stroke:none; fill-opacity:0" cx="1172.75" cy="1131.89" r="2"/>
<circle clip-path="url(#clip361)" style="fill:#e26f46; stroke:none; fill-opacity:0" cx="1798.06" cy="852.055" r="2"/>
<path clip-path="url(#clip361)" d="M328.573 135.012 L328.573 917.578 L766.293 917.578 L766.293 135.012 L328.573 135.012 L328.573 135.012  Z" fill="#333333" fill-rule="evenodd" fill-opacity="1"/>
<polyline clip-path="url(#clip361)" style="stroke:#000000; stroke-linecap:round; stroke-linejoin:round; stroke-width:1.2; stroke-opacity:1; fill:none" points="328.573,135.012 328.573,917.578 766.293,917.578 766.293,135.012 328.573,135.012 "/>
<path clip-path="url(#clip361)" d="M953.887 135.012 L953.887 1131.89 L1391.61 1131.89 L1391.61 135.012 L953.887 135.012 L953.887 135.012  Z" fill="#333333" fill-rule="evenodd" fill-opacity="1"/>
<polyline clip-path="url(#clip361)" style="stroke:#000000; stroke-linecap:round; stroke-linejoin:round; stroke-width:1.2; stroke-opacity:1; fill:none" points="953.887,135.012 953.887,1131.89 1391.61,1131.89 1391.61,135.012 953.887,135.012 "/>
<path clip-path="url(#clip361)" d="M1579.2 135.012 L1579.2 852.055 L2016.92 852.055 L2016.92 135.012 L1579.2 135.012 L1579.2 135.012  Z" fill="#333333" fill-rule="evenodd" fill-opacity="1"/>
<polyline clip-path="url(#clip361)" style="stroke:#000000; stroke-linecap:round; stroke-linejoin:round; stroke-width:1.2; stroke-opacity:1; fill:none" points="1579.2,135.012 1579.2,852.055 2016.92,852.055 2016.92,135.012 1579.2,135.012 "/>
<path clip-path="url(#clip360)" d="M1665.01 385.753 L2058.03 385.753 L2058.03 184.554 L1665.01 184.554  Z" fill="#ffffff" fill-rule="evenodd" fill-opacity="1"/>
<polyline clip-path="url(#clip360)" style="stroke:#000000; stroke-linecap:round; stroke-linejoin:round; stroke-width:4; stroke-opacity:1; fill:none" points="1665.01,385.753 2058.03,385.753 2058.03,184.554 1665.01,184.554 1665.01,385.753 "/>
<path clip-path="url(#clip360)" d="M1686.08 254.974 L1812.55 254.974 L1812.55 214.734 L1686.08 214.734 L1686.08 254.974  Z" fill="#a6a6a6" fill-rule="evenodd" fill-opacity="1"/>
<polyline clip-path="url(#clip360)" style="stroke:#000000; stroke-linecap:round; stroke-linejoin:round; stroke-width:1.2; stroke-opacity:1; fill:none" points="1686.08,254.974 1812.55,254.974 1812.55,214.734 1686.08,214.734 1686.08,254.974 "/>
<g clip-path="url(#clip360)">
<text style="fill:#000000; fill-opacity:1; font-family:Arial,Helvetica Neue,Helvetica,sans-serif; font-size:48px; text-anchor:start;" transform="rotate(0, 1833.63, 252.354)" x="1833.63" y="252.354">Residual</text>
</g>
<path clip-path="url(#clip360)" d="M1686.08 305.273 L1812.55 305.273 L1812.55 265.034 L1686.08 265.034 L1686.08 305.273  Z" fill="#6e6e6e" fill-rule="evenodd" fill-opacity="1"/>
<polyline clip-path="url(#clip360)" style="stroke:#000000; stroke-linecap:round; stroke-linejoin:round; stroke-width:1.2; stroke-opacity:1; fill:none" points="1686.08,305.273 1812.55,305.273 1812.55,265.034 1686.08,265.034 1686.08,305.273 "/>
<g clip-path="url(#clip360)">
<text style="fill:#000000; fill-opacity:1; font-family:Arial,Helvetica Neue,Helvetica,sans-serif; font-size:48px; text-anchor:start;" transform="rotate(0, 1833.63, 302.653)" x="1833.63" y="302.653">Individual</text>
</g>
<path clip-path="url(#clip360)" d="M1686.08 355.573 L1812.55 355.573 L1812.55 315.333 L1686.08 315.333 L1686.08 355.573  Z" fill="#333333" fill-rule="evenodd" fill-opacity="1"/>
<polyline clip-path="url(#clip360)" style="stroke:#000000; stroke-linecap:round; stroke-linejoin:round; stroke-width:1.2; stroke-opacity:1; fill:none" points="1686.08,355.573 1812.55,355.573 1812.55,315.333 1686.08,315.333 1686.08,355.573 "/>
<g clip-path="url(#clip360)">
<text style="fill:#000000; fill-opacity:1; font-family:Arial,Helvetica Neue,Helvetica,sans-serif; font-size:48px; text-anchor:start;" transform="rotate(0, 1833.63, 352.953)" x="1833.63" y="352.953">Joint</text>
</g>
</svg>
