<?xml version="1.0" encoding="utf-8"?>
<svg xmlns="http://www.w3.org/2000/svg" xmlns:xlink="http://www.w3.org/1999/xlink" width="600" height="400" viewBox="0 0 2400 1600">
<defs>
  <clipPath id="clip110">
    <rect x="0" y="0" width="2400" height="1600"/>
  </clipPath>
</defs>
<path clip-path="url(#clip110)" d="M0 1600 L2400 1600 L2400 0 L0 0  Z" fill="#ffffff" fill-rule="evenodd" fill-opacity="1"/>
<defs>
  <clipPath id="clip111">
    <rect x="220" y="47" width="2133" height="1441"/>
  </clipPath>
</defs>
<path clip-path="url(#clip110)" d="M220.804 1487.47 L2352.76 1487.47 L2352.76 47.2441 L220.804 47.2441  Z" fill="#ffffff" fill-rule="evenodd" fill-opacity="1"/>
<polyline clip-path="url(#clip110)" style="stroke:#000000; stroke-linecap:round; stroke-linejoin:round; stroke-width:4; stroke-opacity:1; fill:none" points="220.804,1487.47 2352.76,1487.47 "/>
<polyline clip-path="url(#clip110)" style="stroke:#000000; stroke-linecap:round; stroke-linejoin:round; stroke-width:4; stroke-opacity:1; fill:none" points="254.325,1487.47 254.325,1468.58 "/>
<polyline clip-path="url(#clip110)" style="stroke:#000000; stroke-linecap:round; stroke-linejoin:round; stroke-width:4; stroke-opacity:1; fill:none" points="790.665,1487.47 790.665,1468.58 "/>
<polyline clip-path="url(#clip110)" style="stroke:#000000; stroke-linecap:round; stroke-linejoin:round; stroke-width:4; stroke-opacity:1; fill:none" points="1327.01,1487.47 1327.01,1468.58 "/>
<polyline clip-path="url(#clip110)" style="stroke:#000000; stroke-linecap:round; stroke-linejoin:round; stroke-width:4; stroke-opacity:1; fill:none" points="1863.35,1487.47 1863.35,1468.58 "/>
<g clip-path="url(#clip110)">
<text style="fill:#000000; fill-opacity:1; font-family:Arial,Helvetica Neue,Helvetica,sans-serif; font-size:48px; text-anchor:middle;" transform="rotate(0, 254.325, 1549.32)" x="254.325" y="1549.32">−4</text>
</g>
<g clip-path="url(#clip110)">
<text style="fill:#000000; fill-opacity:1; font-family:Arial,Helvetica Neue,Helvetica,sans-serif; font-size:48px; text-anchor:middle;" transform="rotate(0, 790.665, 1549.32)" x="790.665" y="1549.32">−2</text>
</g>
<g clip-path="url(#clip110)">
<text style="fill:#000000; fill-opacity:1; font-family:Arial,Helvetica Neue,Helvetica,sans-serif; font-size:48px; text-anchor:middle;" transform="rotate(0, 1327.01, 1549.32)" x="1327.01" y="1549.32">0</text>
</g>
<g clip-path="url(#clip110)">
<text style="fill:#000000; fill-opacity:1; font-family:Arial,Helvetica Neue,Helvetica,sans-serif; font-size:48px; text-anchor:middle;" transform="rotate(0, 1863.35, 1549.32)" x="1863.35" y="1549.32">2</text>
</g>
<polyline clip-path="url(#clip110)" style="stroke:#ffffff; stroke-linecap:round; stroke-linejoin:round; stroke-width:4; stroke-opacity:1; fill:none" points="220.804,1487.47 220.804,47.2441 "/>
<polyline clip-path="url(#clip110)" style="stroke:#ffffff; stroke-linecap:round; stroke-linejoin:round; stroke-width:4; stroke-opacity:1; fill:none" points="220.804,1322.88 239.701,1322.88 "/>
<polyline clip-path="url(#clip110)" style="stroke:#ffffff; stroke-linecap:round; stroke-linejoin:round; stroke-width:4; stroke-opacity:1; fill:none" points="220.804,1158.28 239.701,1158.28 "/>
<polyline clip-path="url(#clip110)" style="stroke:#ffffff; stroke-linecap:round; stroke-linejoin:round; stroke-width:4; stroke-opacity:1; fill:none" points="220.804,993.681 239.701,993.681 "/>
<polyline clip-path="url(#clip110)" style="stroke:#ffffff; stroke-linecap:round; stroke-linejoin:round; stroke-width:4; stroke-opacity:1; fill:none" points="220.804,829.084 239.701,829.084 "/>
<polyline clip-path="url(#clip110)" style="stroke:#ffffff; stroke-linecap:round; stroke-linejoin:round; stroke-width:4; stroke-opacity:1; fill:none" points="220.804,664.486 239.701,664.486 "/>
<polyline clip-path="url(#clip110)" style="stroke:#ffffff; stroke-linecap:round; stroke-linejoin:round; stroke-width:4; stroke-opacity:1; fill:none" points="220.804,499.888 239.701,499.888 "/>
<polyline clip-path="url(#clip110)" style="stroke:#ffffff; stroke-linecap:round; stroke-linejoin:round; stroke-width:4; stroke-opacity:1; fill:none" points="220.804,335.29 239.701,335.29 "/>
<polyline clip-path="url(#clip110)" style="stroke:#ffffff; stroke-linecap:round; stroke-linejoin:round; stroke-width:4; stroke-opacity:1; fill:none" points="220.804,170.692 239.701,170.692 "/>
<g clip-path="url(#clip110)">
<text style="fill:#000000; fill-opacity:1; font-family:Arial,Helvetica Neue,Helvetica,sans-serif; font-size:48px; text-anchor:middle;" transform="rotate(0, 117.898, 1340.38)" x="117.898" y="1340.38">gene1</text>
</g>
<g clip-path="url(#clip110)">
<text style="fill:#000000; fill-opacity:1; font-family:Arial,Helvetica Neue,Helvetica,sans-serif; font-size:48px; text-anchor:middle;" transform="rotate(0, 117.898, 1175.78)" x="117.898" y="1175.78">gene2</text>
</g>
<g clip-path="url(#clip110)">
<text style="fill:#000000; fill-opacity:1; font-family:Arial,Helvetica Neue,Helvetica,sans-serif; font-size:48px; text-anchor:middle;" transform="rotate(0, 117.898, 1011.18)" x="117.898" y="1011.18">gene3</text>
</g>
<g clip-path="url(#clip110)">
<text style="fill:#000000; fill-opacity:1; font-family:Arial,Helvetica Neue,Helvetica,sans-serif; font-size:48px; text-anchor:middle;" transform="rotate(0, 117.898, 846.584)" x="117.898" y="846.584">gene4</text>
</g>
<g clip-path="url(#clip110)">
<text style="fill:#000000; fill-opacity:1; font-family:Arial,Helvetica Neue,Helvetica,sans-serif; font-size:48px; text-anchor:middle;" transform="rotate(0, 117.898, 681.986)" x="117.898" y="681.986">gene5</text>
</g>
<g clip-path="url(#clip110)">
<text style="fill:#000000; fill-opacity:1; font-family:Arial,Helvetica Neue,Helvetica,sans-serif; font-size:48px; text-anchor:middle;" transform="rotate(0, 117.898, 517.388)" x="117.898" y="517.388">gene6</text>
</g>
<g clip-path="url(#clip110)">
<text style="fill:#000000; fill-opacity:1; font-family:Arial,Helvetica Neue,Helvetica,sans-serif; font-size:48px; text-anchor:middle;" transform="rotate(0, 117.898, 352.79)" x="117.898" y="352.79">gene7</text>
</g>
<g clip-path="url(#clip110)">
<text style="fill:#000000; fill-opacity:1; font-family:Arial,Helvetica Neue,Helvetica,sans-serif; font-size:48px; text-anchor:middle;" transform="rotate(0, 117.898, 188.192)" x="117.898" y="188.192">gene8</text>
</g>
<polyline clip-path="url(#clip111)" style="stroke:#000000; stroke-linecap:round; stroke-linejoin:round; stroke-width:4; stroke-opacity:1; fill:none" points="1648.81,1322.88 1970.61,1322.88 "/>
<polyline clip-path="url(#clip111)" style="stroke:#000000; stroke-linecap:round; stroke-linejoin:round; stroke-width:4; stroke-opacity:1; fill:none" points="468.861,1158.28 897.933,1158.28 "/>
<polyline clip-path="url(#clip111)" style="stroke:#000000; stroke-linecap:round; stroke-linejoin:round; stroke-width:4; stroke-opacity:1; fill:none" points="1139.29,993.681 1675.63,993.681 "/>
<polyline clip-path="url(#clip111)" style="stroke:#000000; stroke-linecap:round; stroke-linejoin:round; stroke-width:4; stroke-opacity:1; fill:none" points="1916.98,829.084 2292.42,829.084 "/>
<polyline clip-path="url(#clip111)" style="stroke:#000000; stroke-linecap:round; stroke-linejoin:round; stroke-width:4; stroke-opacity:1; fill:none" points="924.75,664.486 1407.46,664.486 "/>
<polyline clip-path="url(#clip111)" style="stroke:#000000; stroke-linecap:round; stroke-linejoin:round; stroke-width:4; stroke-opacity:1; fill:none" points="1246.55,499.888 1997.43,499.888 "/>
<polyline clip-path="url(#clip111)" style="stroke:#000000; stroke-linecap:round; stroke-linejoin:round; stroke-width:4; stroke-opacity:1; fill:none" points="281.142,335.29 656.58,335.29 "/>
<polyline clip-path="url(#clip111)" style="stroke:#000000; stroke-linecap:round; stroke-linejoin:round; stroke-width:4; stroke-opacity:1; fill:none" points="1434.27,170.692 1702.44,170.692 "/>
<line clip-path="url(#clip111)" x1="1648.81" y1="1338.88" x2="1648.81" y2="1306.88" style="stroke:#000000; stroke-width:4; stroke-opacity:1"/>
<line clip-path="url(#clip111)" x1="1970.61" y1="1338.88" x2="1970.61" y2="1306.88" style="stroke:#000000; stroke-width:4; stroke-opacity:1"/>
<line clip-path="url(#clip111)" x1="468.861" y1="1174.28" x2="468.861" y2="1142.28" style="stroke:#000000; stroke-width:4; stroke-opacity:1"/>
<line clip-path="url(#clip111)" x1="897.933" y1="1174.28" x2="897.933" y2="1142.28" style="stroke:#000000; stroke-width:4; stroke-opacity:1"/>
<line clip-path="url(#clip111)" x1="1139.29" y1="1009.68" x2="1139.29" y2="977.681" style="stroke:#000000; stroke-width:4; stroke-opacity:1"/>
<line clip-path="url(#clip111)" x1="1675.63" y1="1009.68" x2="1675.63" y2="977.681" style="stroke:#000000; stroke-width:4; stroke-opacity:1"/>
<line clip-path="url(#clip111)" x1="1916.98" y1="845.084" x2="1916.98" y2="813.084" style="stroke:#000000; stroke-width:4; stroke-opacity:1"/>
<line clip-path="url(#clip111)" x1="2292.42" y1="845.084" x2="2292.42" y2="813.084" style="stroke:#000000; stroke-width:4; stroke-opacity:1"/>
<line clip-path="url(#clip111)" x1="924.75" y1="680.486" x2="924.75" y2="648.486" style="stroke:#000000; stroke-width:4; stroke-opacity:1"/>
<line clip-path="url(#clip111)" x1="1407.46" y1="680.486" x2="1407.46" y2="648.486" style="stroke:#000000; stroke-width:4; stroke-opacity:1"/>
<line clip-path="url(#clip111)" x1="1246.55" y1="515.888" x2="1246.55" y2="483.888" style="stroke:#000000; stroke-width:4; stroke-opacity:1"/>
<line clip-path="url(#clip111)" x1="1997.43" y1="515.888" x2="1997.43" y2="483.888" style="stroke:#000000; stroke-width:4; stroke-opacity:1"/>
<line clip-path="url(#clip111)" x1="281.142" y1="351.29" x2="281.142" y2="319.29" style="stroke:#000000; stroke-width:4; stroke-opacity:1"/>
<line clip-path="url(#clip111)" x1="656.58" y1="351.29" x2="656.58" y2="319.29" style="stroke:#000000; stroke-width:4; stroke-opacity:1"/>
<line clip-path="url(#clip111)" x1="1434.27" y1="186.692" x2="1434.27" y2="154.692" style="stroke:#000000; stroke-width:4; stroke-opacity:1"/>
<line clip-path="url(#clip111)" x1="1702.44" y1="186.692" x2="1702.44" y2="154.692" style="stroke:#000000; stroke-width:4; stroke-opacity:1"/>
<path clip-path="url(#clip111)" d="M1793.71 1306.88 L1793.71 1338.88 L1825.71 1338.88 L1825.71 1306.88 L1793.71 1306.88 Z" fill="#3082bc" fill-rule="evenodd" fill-opacity="1" stroke="#000000" stroke-opacity="1" stroke-width="3.2"/>
<path clip-path="url(#clip111)" d="M667.397 1142.28 L667.397 1174.28 L699.397 1174.28 L699.397 1142.28 L667.397 1142.28 Z" fill="#3082bc" fill-rule="evenodd" fill-opacity="1" stroke="#000000" stroke-opacity="1" stroke-width="3.2"/>
<path clip-path="url(#clip111)" d="M1391.46 977.681 L1391.46 1009.68 L1423.46 1009.68 L1423.46 977.681 L1391.46 977.681 Z" fill="#deebf7" fill-rule="evenodd" fill-opacity="1" stroke="#000000" stroke-opacity="1" stroke-width="3.2"/>
<path clip-path="url(#clip111)" d="M2088.7 813.084 L2088.7 845.084 L2120.7 845.084 L2120.7 813.084 L2088.7 813.084 Z" fill="#3082bc" fill-rule="evenodd" fill-opacity="1" stroke="#000000" stroke-opacity="1" stroke-width="3.2"/>
<path clip-path="url(#clip111)" d="M1150.1 648.486 L1150.1 680.486 L1182.1 680.486 L1182.1 648.486 L1150.1 648.486 Z" fill="#deebf7" fill-rule="evenodd" fill-opacity="1" stroke="#000000" stroke-opacity="1" stroke-width="3.2"/>
<path clip-path="url(#clip111)" d="M1605.99 483.888 L1605.99 515.888 L1637.99 515.888 L1637.99 483.888 L1605.99 483.888 Z" fill="#deebf7" fill-rule="evenodd" fill-opacity="1" stroke="#000000" stroke-opacity="1" stroke-width="3.2"/>
<path clip-path="url(#clip111)" d="M452.861 319.29 L452.861 351.29 L484.861 351.29 L484.861 319.29 L452.861 319.29 Z" fill="#3082bc" fill-rule="evenodd" fill-opacity="1" stroke="#000000" stroke-opacity="1" stroke-width="3.2"/>
<path clip-path="url(#clip111)" d="M1552.36 154.692 L1552.36 186.692 L1584.36 186.692 L1584.36 154.692 L1552.36 154.692 Z" fill="#3082bc" fill-rule="evenodd" fill-opacity="1" stroke="#000000" stroke-opacity="1" stroke-width="3.2"/>
<polyline clip-path="url(#clip111)" style="stroke:#ff0000; stroke-linecap:round; stroke-linejoin:round; stroke-width:4; stroke-opacity:0.5; fill:none" points="1327.01,2927.71 1327.01,-1392.99 "/>
</svg>
