<?xml version="1.0" encoding="utf-8"?>
<svg xmlns="http://www.w3.org/2000/svg" xmlns:xlink="http://www.w3.org/1999/xlink" width="650" height="550" viewBox="0 0 2600 2200">
<defs>
  <clipPath id="clip780">
    <rect x="0" y="0" width="2600" height="2200"/>
  </clipPath>
</defs>
<path clip-path="url(#clip780)" d="M0 2200 L2600 2200 L2600 0 L0 0  Z" fill="#ffffff" fill-rule="evenodd" fill-opacity="1"/>
<defs>
  <clipPath id="clip781">
    <rect x="238" y="137" width="2284" height="1856"/>
  </clipPath>
</defs>
<path clip-path="url(#clip780)" d="M238.067 1992.64 L2521.26 1992.64 L2521.26 137.474 L238.067 137.474  Z" fill="#ffffff" fill-rule="evenodd" fill-opacity="1"/>
<polyline clip-path="url(#clip781)" style="stroke:#000000; stroke-linecap:round; stroke-linejoin:round; stroke-width:2.8; stroke-opacity:0.2; fill:none" points="238.067,1992.64 2521.26,1992.64 "/>
<polyline clip-path="url(#clip781)" style="stroke:#000000; stroke-linecap:round; stroke-linejoin:round; stroke-width:2.8; stroke-opacity:0.2; fill:none" points="238.067,1543.66 2521.26,1543.66 "/>
<polyline clip-path="url(#clip781)" style="stroke:#000000; stroke-linecap:round; stroke-linejoin:round; stroke-width:2.8; stroke-opacity:0.2; fill:none" points="238.067,1094.68 2521.26,1094.68 "/>
<polyline clip-path="url(#clip781)" style="stroke:#000000; stroke-linecap:round; stroke-linejoin:round; stroke-width:2.8; stroke-opacity:0.2; fill:none" points="238.067,645.703 2521.26,645.703 "/>
<polyline clip-path="url(#clip781)" style="stroke:#000000; stroke-linecap:round; stroke-linejoin:round; stroke-width:2.8; stroke-opacity:0.2; fill:none" points="238.067,196.723 2521.26,196.723 "/>
<polyline clip-path="url(#clip780)" style="stroke:#000000; stroke-linecap:round; stroke-linejoin:round; stroke-width:4; stroke-opacity:1; fill:none" points="238.067,1992.64 2521.26,1992.64 "/>
<polyline clip-path="url(#clip780)" style="stroke:#000000; stroke-linecap:round; stroke-linejoin:round; stroke-width:4; stroke-opacity:1; fill:none" points="467.854,1992.64 467.854,2011.54 "/>
<polyline clip-path="url(#clip780)" style="stroke:#000000; stroke-linecap:round; stroke-linejoin:round; stroke-width:4; stroke-opacity:1; fill:none" points="728.371,1992.64 728.371,2011.54 "/>
<polyline clip-path="url(#clip780)" style="stroke:#000000; stroke-linecap:round; stroke-linejoin:round; stroke-width:4; stroke-opacity:1; fill:none" points="988.888,1992.64 988.888,2011.54 "/>
<polyline clip-path="url(#clip780)" style="stroke:#000000; stroke-linecap:round; stroke-linejoin:round; stroke-width:4; stroke-opacity:1; fill:none" points="1249.41,1992.64 1249.41,2011.54 "/>
<polyline clip-path="url(#clip780)" style="stroke:#000000; stroke-linecap:round; stroke-linejoin:round; stroke-width:4; stroke-opacity:1; fill:none" points="1509.92,1992.64 1509.92,2011.54 "/>
<polyline clip-path="url(#clip780)" style="stroke:#000000; stroke-linecap:round; stroke-linejoin:round; stroke-width:4; stroke-opacity:1; fill:none" points="1770.44,1992.64 1770.44,2011.54 "/>
<polyline clip-path="url(#clip780)" style="stroke:#000000; stroke-linecap:round; stroke-linejoin:round; stroke-width:4; stroke-opacity:1; fill:none" points="2030.96,1992.64 2030.96,2011.54 "/>
<polyline clip-path="url(#clip780)" style="stroke:#000000; stroke-linecap:round; stroke-linejoin:round; stroke-width:4; stroke-opacity:1; fill:none" points="2291.47,1992.64 2291.47,2011.54 "/>
<g clip-path="url(#clip780)">
<text style="fill:#000000; fill-opacity:1; font-family:Arial,Helvetica Neue,Helvetica,sans-serif; font-size:48px; text-anchor:middle;" transform="rotate(0, 467.854, 2066.49)" x="467.854" y="2066.49">PC 1</text>
</g>
<g clip-path="url(#clip780)">
<text style="fill:#000000; fill-opacity:1; font-family:Arial,Helvetica Neue,Helvetica,sans-serif; font-size:48px; text-anchor:middle;" transform="rotate(0, 728.371, 2066.49)" x="728.371" y="2066.49">PC 2</text>
</g>
<g clip-path="url(#clip780)">
<text style="fill:#000000; fill-opacity:1; font-family:Arial,Helvetica Neue,Helvetica,sans-serif; font-size:48px; text-anchor:middle;" transform="rotate(0, 988.888, 2066.49)" x="988.888" y="2066.49">PC 3</text>
</g>
<g clip-path="url(#clip780)">
<text style="fill:#000000; fill-opacity:1; font-family:Arial,Helvetica Neue,Helvetica,sans-serif; font-size:48px; text-anchor:middle;" transform="rotate(0, 1249.41, 2066.49)" x="1249.41" y="2066.49">PC 4</text>
</g>
<g clip-path="url(#clip780)">
<text style="fill:#000000; fill-opacity:1; font-family:Arial,Helvetica Neue,Helvetica,sans-serif; font-size:48px; text-anchor:middle;" transform="rotate(0, 1509.92, 2066.49)" x="1509.92" y="2066.49">PC 5</text>
</g>
<g clip-path="url(#clip780)">
<text style="fill:#000000; fill-opacity:1; font-family:Arial,Helvetica Neue,Helvetica,sans-serif; font-size:48px; text-anchor:middle;" transform="rotate(0, 1770.44, 2066.49)" x="1770.44" y="2066.49">PC 6</text>
</g>
<g clip-path="url(#clip780)">
<text style="fill:#000000; fill-opacity:1; font-family:Arial,Helvetica Neue,Helvetica,sans-serif; font-size:48px; text-anchor:middle;" transform="rotate(0, 2030.96, 2066.49)" x="2030.96" y="2066.49">PC 7</text>
</g>
<g clip-path="url(#clip780)">
<text style="fill:#000000; fill-opacity:1; font-family:Arial,Helvetica Neue,Helvetica,sans-serif; font-size:48px; text-anchor:middle;" transform="rotate(0, 2291.47, 2066.49)" x="2291.47" y="2066.49">PC 8</text>
</g>
<g clip-path="url(#clip780)">
<text style="fill:#000000; fill-opacity:1; font-family:Arial,Helvetica Neue,Helvetica,sans-serif; font-size:89px; text-anchor:middle;" transform="rotate(0, 1379.66, 2163.26)" x="1379.66" y="2163.26">Component</text>
</g>
<polyline clip-path="url(#clip780)" style="stroke:#000000; stroke-linecap:round; stroke-linejoin:round; stroke-width:4; stroke-opacity:1; fill:none" points="238.067,1992.64 238.067,137.474 "/>
<polyline clip-path="url(#clip780)" style="stroke:#000000; stroke-linecap:round; stroke-linejoin:round; stroke-width:4; stroke-opacity:1; fill:none" points="238.067,1992.64 219.17,1992.64 "/>
<polyline clip-path="url(#clip780)" style="stroke:#000000; stroke-linecap:round; stroke-linejoin:round; stroke-width:4; stroke-opacity:1; fill:none" points="238.067,1543.66 219.17,1543.66 "/>
<polyline clip-path="url(#clip780)" style="stroke:#000000; stroke-linecap:round; stroke-linejoin:round; stroke-width:4; stroke-opacity:1; fill:none" points="238.067,1094.68 219.17,1094.68 "/>
<polyline clip-path="url(#clip780)" style="stroke:#000000; stroke-linecap:round; stroke-linejoin:round; stroke-width:4; stroke-opacity:1; fill:none" points="238.067,645.703 219.17,645.703 "/>
<polyline clip-path="url(#clip780)" style="stroke:#000000; stroke-linecap:round; stroke-linejoin:round; stroke-width:4; stroke-opacity:1; fill:none" points="238.067,196.723 219.17,196.723 "/>
<g clip-path="url(#clip780)">
<text style="fill:#000000; fill-opacity:1; font-family:Arial,Helvetica Neue,Helvetica,sans-serif; font-size:48px; text-anchor:middle;" transform="rotate(0, 166.186, 2010.14)" x="166.186" y="2010.14">0</text>
</g>
<g clip-path="url(#clip780)">
<text style="fill:#000000; fill-opacity:1; font-family:Arial,Helvetica Neue,Helvetica,sans-serif; font-size:48px; text-anchor:middle;" transform="rotate(0, 152.805, 1561.16)" x="152.805" y="1561.16">10</text>
</g>
<g clip-path="url(#clip780)">
<text style="fill:#000000; fill-opacity:1; font-family:Arial,Helvetica Neue,Helvetica,sans-serif; font-size:48px; text-anchor:middle;" transform="rotate(0, 152.805, 1112.18)" x="152.805" y="1112.18">20</text>
</g>
<g clip-path="url(#clip780)">
<text style="fill:#000000; fill-opacity:1; font-family:Arial,Helvetica Neue,Helvetica,sans-serif; font-size:48px; text-anchor:middle;" transform="rotate(0, 152.805, 663.203)" x="152.805" y="663.203">30</text>
</g>
<g clip-path="url(#clip780)">
<text style="fill:#000000; fill-opacity:1; font-family:Arial,Helvetica Neue,Helvetica,sans-serif; font-size:48px; text-anchor:middle;" transform="rotate(0, 152.805, 214.223)" x="152.805" y="214.223">40</text>
</g>
<g clip-path="url(#clip780)">
<text style="fill:#000000; fill-opacity:1; font-family:Arial,Helvetica Neue,Helvetica,sans-serif; font-size:89px; text-anchor:middle;" transform="rotate(-90, 90.2306, 1065.06)" x="90.2306" y="1065.06">variance</text>
</g>
<g clip-path="url(#clip780)">
<text style="fill:#000000; fill-opacity:1; font-family:Arial,Helvetica Neue,Helvetica,sans-serif; font-size:84px; text-anchor:middle;" transform="rotate(0, 1379.66, 73.2)" x="1379.66" y="73.2">PCA scree, the line alone</text>
</g>
<path clip-path="url(#clip781)" d="M363.647 306.126 L363.647 1992.64 L572.061 1992.64 L572.061 306.126 L363.647 306.126 L363.647 306.126  Z" fill="#000000" fill-rule="evenodd" fill-opacity="0"/>
<polyline clip-path="url(#clip781)" style="stroke:#000000; stroke-linecap:round; stroke-linejoin:round; stroke-width:4; stroke-opacity:0; fill:none" points="363.647,306.126 363.647,1992.64 572.061,1992.64 572.061,306.126 363.647,306.126 "/>
<path clip-path="url(#clip781)" d="M624.164 874.211 L624.164 1992.64 L832.578 1992.64 L832.578 874.211 L624.164 874.211 L624.164 874.211  Z" fill="#000000" fill-rule="evenodd" fill-opacity="0"/>
<polyline clip-path="url(#clip781)" style="stroke:#000000; stroke-linecap:round; stroke-linejoin:round; stroke-width:4; stroke-opacity:0; fill:none" points="624.164,874.211 624.164,1992.64 832.578,1992.64 832.578,874.211 624.164,874.211 "/>
<path clip-path="url(#clip781)" d="M884.681 1178.64 L884.681 1992.64 L1093.09 1992.64 L1093.09 1178.64 L884.681 1178.64 L884.681 1178.64  Z" fill="#000000" fill-rule="evenodd" fill-opacity="0"/>
<polyline clip-path="url(#clip781)" style="stroke:#000000; stroke-linecap:round; stroke-linejoin:round; stroke-width:4; stroke-opacity:0; fill:none" points="884.681,1178.64 884.681,1992.64 1093.09,1992.64 1093.09,1178.64 884.681,1178.64 "/>
<path clip-path="url(#clip781)" d="M1145.2 1985.21 L1145.2 1992.64 L1353.61 1992.64 L1353.61 1985.21 L1145.2 1985.21 L1145.2 1985.21  Z" fill="#000000" fill-rule="evenodd" fill-opacity="0"/>
<polyline clip-path="url(#clip781)" style="stroke:#000000; stroke-linecap:round; stroke-linejoin:round; stroke-width:4; stroke-opacity:0; fill:none" points="1145.2,1985.21 1145.2,1992.64 1353.61,1992.64 1353.61,1985.21 1145.2,1985.21 "/>
<path clip-path="url(#clip781)" d="M1405.72 1985.71 L1405.72 1992.64 L1614.13 1992.64 L1614.13 1985.71 L1405.72 1985.71 L1405.72 1985.71  Z" fill="#000000" fill-rule="evenodd" fill-opacity="0"/>
<polyline clip-path="url(#clip781)" style="stroke:#000000; stroke-linecap:round; stroke-linejoin:round; stroke-width:4; stroke-opacity:0; fill:none" points="1405.72,1985.71 1405.72,1992.64 1614.13,1992.64 1614.13,1985.71 1405.72,1985.71 "/>
<path clip-path="url(#clip781)" d="M1666.23 1986.62 L1666.23 1992.64 L1874.65 1992.64 L1874.65 1986.62 L1666.23 1986.62 L1666.23 1986.62  Z" fill="#000000" fill-rule="evenodd" fill-opacity="0"/>
<polyline clip-path="url(#clip781)" style="stroke:#000000; stroke-linecap:round; stroke-linejoin:round; stroke-width:4; stroke-opacity:0; fill:none" points="1666.23,1986.62 1666.23,1992.64 1874.65,1992.64 1874.65,1986.62 1666.23,1986.62 "/>
<path clip-path="url(#clip781)" d="M1926.75 1987.37 L1926.75 1992.64 L2135.16 1992.64 L2135.16 1987.37 L1926.75 1987.37 L1926.75 1987.37  Z" fill="#000000" fill-rule="evenodd" fill-opacity="0"/>
<polyline clip-path="url(#clip781)" style="stroke:#000000; stroke-linecap:round; stroke-linejoin:round; stroke-width:4; stroke-opacity:0; fill:none" points="1926.75,1987.37 1926.75,1992.64 2135.16,1992.64 2135.16,1987.37 1926.75,1987.37 "/>
<path clip-path="url(#clip781)" d="M2187.27 1987.51 L2187.27 1992.64 L2395.68 1992.64 L2395.68 1987.51 L2187.27 1987.51 L2187.27 1987.51  Z" fill="#000000" fill-rule="evenodd" fill-opacity="0"/>
<polyline clip-path="url(#clip781)" style="stroke:#000000; stroke-linecap:round; stroke-linejoin:round; stroke-width:4; stroke-opacity:0; fill:none" points="2187.27,1987.51 2187.27,1992.64 2395.68,1992.64 2395.68,1987.51 2187.27,1987.51 "/>
<circle clip-path="url(#clip781)" style="fill:#009af9; stroke:none; fill-opacity:0" cx="467.854" cy="306.126" r="2"/>
<circle clip-path="url(#clip781)" style="fill:#009af9; stroke:none; fill-opacity:0" cx="728.371" cy="874.211" r="2"/>
<circle clip-path="url(#clip781)" style="fill:#009af9; stroke:none; fill-opacity:0" cx="988.888" cy="1178.64" r="2"/>
<circle clip-path="url(#clip781)" style="fill:#009af9; stroke:none; fill-opacity:0" cx="1249.41" cy="1985.21" r="2"/>
<circle clip-path="url(#clip781)" style="fill:#009af9; stroke:none; fill-opacity:0" cx="1509.92" cy="1985.71" r="2"/>
<circle clip-path="url(#clip781)" style="fill:#009af9; stroke:none; fill-opacity:0" cx="1770.44" cy="1986.62" r="2"/>
<circle clip-path="url(#clip781)" style="fill:#009af9; stroke:none; fill-opacity:0" cx="2030.96" cy="1987.37" r="2"/>
<circle clip-path="url(#clip781)" style="fill:#009af9; stroke:none; fill-opacity:0" cx="2291.47" cy="1987.51" r="2"/>
<polyline clip-path="url(#clip781)" style="stroke:#2171b5; stroke-linecap:round; stroke-linejoin:round; stroke-width:8; stroke-opacity:1; fill:none" points="467.854,306.126 728.371,874.211 988.888,1178.64 1249.41,1985.21 1509.92,1985.71 1770.44,1986.62 2030.96,1987.37 2291.47,1987.51 "/>
<circle clip-path="url(#clip781)" cx="467.854" cy="306.126" r="18" fill="#2171b5" fill-rule="evenodd" fill-opacity="1" stroke="#000000" stroke-opacity="1" stroke-width="1.32"/>
<circle clip-path="url(#clip781)" cx="728.371" cy="874.211" r="18" fill="#2171b5" fill-rule="evenodd" fill-opacity="1" stroke="#000000" stroke-opacity="1" stroke-width="1.32"/>
<circle clip-path="url(#clip781)" cx="988.888" cy="1178.64" r="18" fill="#2171b5" fill-rule="evenodd" fill-opacity="1" stroke="#000000" stroke-opacity="1" stroke-width="1.32"/>
<circle clip-path="url(#clip781)" cx="1249.41" cy="1985.21" r="18" fill="#2171b5" fill-rule="evenodd" fill-opacity="1" stroke="#000000" stroke-opacity="1" stroke-width="1.32"/>
<circle clip-path="url(#clip781)" cx="1509.92" cy="1985.71" r="18" fill="#2171b5" fill-rule="evenodd" fill-opacity="1" stroke="#000000" stroke-opacity="1" stroke-width="1.32"/>
<circle clip-path="url(#clip781)" cx="1770.44" cy="1986.62" r="18" fill="#2171b5" fill-rule="evenodd" fill-opacity="1" stroke="#000000" stroke-opacity="1" stroke-width="1.32"/>
<circle clip-path="url(#clip781)" cx="2030.96" cy="1987.37" r="18" fill="#2171b5" fill-rule="evenodd" fill-opacity="1" stroke="#000000" stroke-opacity="1" stroke-width="1.32"/>
<circle clip-path="url(#clip781)" cx="2291.47" cy="1987.51" r="18" fill="#2171b5" fill-rule="evenodd" fill-opacity="1" stroke="#000000" stroke-opacity="1" stroke-width="1.32"/>
</svg>
