<?xml version="1.0" encoding="utf-8"?>
<svg xmlns="http://www.w3.org/2000/svg" xmlns:xlink="http://www.w3.org/1999/xlink" width="650" height="550" viewBox="0 0 2600 2200">
<defs>
  <clipPath id="clip180">
    <rect x="0" y="0" width="2600" height="2200"/>
  </clipPath>
</defs>
<path clip-path="url(#clip180)" d="M0 2200 L2600 2200 L2600 0 L0 0  Z" fill="#ffffff" fill-rule="evenodd" fill-opacity="1"/>
<defs>
  <clipPath id="clip181">
    <rect x="278" y="137" width="2244" height="1856"/>
  </clipPath>
</defs>
<path clip-path="url(#clip180)" d="M278.211 1992.64 L2521.26 1992.64 L2521.26 137.474 L278.211 137.474  Z" fill="#ffffff" fill-rule="evenodd" fill-opacity="1"/>
<polyline clip-path="url(#clip181)" style="stroke:#000000; stroke-linecap:round; stroke-linejoin:round; stroke-width:2.8; stroke-opacity:0.2; fill:none" points="278.211,1992.64 2521.26,1992.64 "/>
<polyline clip-path="url(#clip181)" style="stroke:#000000; stroke-linecap:round; stroke-linejoin:round; stroke-width:2.8; stroke-opacity:0.2; fill:none" points="278.211,1550.94 2521.26,1550.94 "/>
<polyline clip-path="url(#clip181)" style="stroke:#000000; stroke-linecap:round; stroke-linejoin:round; stroke-width:2.8; stroke-opacity:0.2; fill:none" points="278.211,1109.23 2521.26,1109.23 "/>
<polyline clip-path="url(#clip181)" style="stroke:#000000; stroke-linecap:round; stroke-linejoin:round; stroke-width:2.8; stroke-opacity:0.2; fill:none" points="278.211,667.523 2521.26,667.523 "/>
<polyline clip-path="url(#clip181)" style="stroke:#000000; stroke-linecap:round; stroke-linejoin:round; stroke-width:2.8; stroke-opacity:0.2; fill:none" points="278.211,225.816 2521.26,225.816 "/>
<polyline clip-path="url(#clip180)" style="stroke:#000000; stroke-linecap:round; stroke-linejoin:round; stroke-width:4; stroke-opacity:1; fill:none" points="278.211,1992.64 2521.26,1992.64 "/>
<polyline clip-path="url(#clip180)" style="stroke:#000000; stroke-linecap:round; stroke-linejoin:round; stroke-width:4; stroke-opacity:1; fill:none" points="503.957,1992.64 503.957,2011.54 "/>
<polyline clip-path="url(#clip180)" style="stroke:#000000; stroke-linecap:round; stroke-linejoin:round; stroke-width:4; stroke-opacity:1; fill:none" points="759.894,1992.64 759.894,2011.54 "/>
<polyline clip-path="url(#clip180)" style="stroke:#000000; stroke-linecap:round; stroke-linejoin:round; stroke-width:4; stroke-opacity:1; fill:none" points="1015.83,1992.64 1015.83,2011.54 "/>
<polyline clip-path="url(#clip180)" style="stroke:#000000; stroke-linecap:round; stroke-linejoin:round; stroke-width:4; stroke-opacity:1; fill:none" points="1271.77,1992.64 1271.77,2011.54 "/>
<polyline clip-path="url(#clip180)" style="stroke:#000000; stroke-linecap:round; stroke-linejoin:round; stroke-width:4; stroke-opacity:1; fill:none" points="1527.7,1992.64 1527.7,2011.54 "/>
<polyline clip-path="url(#clip180)" style="stroke:#000000; stroke-linecap:round; stroke-linejoin:round; stroke-width:4; stroke-opacity:1; fill:none" points="1783.64,1992.64 1783.64,2011.54 "/>
<polyline clip-path="url(#clip180)" style="stroke:#000000; stroke-linecap:round; stroke-linejoin:round; stroke-width:4; stroke-opacity:1; fill:none" points="2039.58,1992.64 2039.58,2011.54 "/>
<polyline clip-path="url(#clip180)" style="stroke:#000000; stroke-linecap:round; stroke-linejoin:round; stroke-width:4; stroke-opacity:1; fill:none" points="2295.51,1992.64 2295.51,2011.54 "/>
<g clip-path="url(#clip180)">
<text style="fill:#000000; fill-opacity:1; font-family:Arial,Helvetica Neue,Helvetica,sans-serif; font-size:48px; text-anchor:middle;" transform="rotate(0, 503.957, 2066.49)" x="503.957" y="2066.49">PC 1</text>
</g>
<g clip-path="url(#clip180)">
<text style="fill:#000000; fill-opacity:1; font-family:Arial,Helvetica Neue,Helvetica,sans-serif; font-size:48px; text-anchor:middle;" transform="rotate(0, 759.894, 2066.49)" x="759.894" y="2066.49">PC 2</text>
</g>
<g clip-path="url(#clip180)">
<text style="fill:#000000; fill-opacity:1; font-family:Arial,Helvetica Neue,Helvetica,sans-serif; font-size:48px; text-anchor:middle;" transform="rotate(0, 1015.83, 2066.49)" x="1015.83" y="2066.49">PC 3</text>
</g>
<g clip-path="url(#clip180)">
<text style="fill:#000000; fill-opacity:1; font-family:Arial,Helvetica Neue,Helvetica,sans-serif; font-size:48px; text-anchor:middle;" transform="rotate(0, 1271.77, 2066.49)" x="1271.77" y="2066.49">PC 4</text>
</g>
<g clip-path="url(#clip180)">
<text style="fill:#000000; fill-opacity:1; font-family:Arial,Helvetica Neue,Helvetica,sans-serif; font-size:48px; text-anchor:middle;" transform="rotate(0, 1527.7, 2066.49)" x="1527.7" y="2066.49">PC 5</text>
</g>
<g clip-path="url(#clip180)">
<text style="fill:#000000; fill-opacity:1; font-family:Arial,Helvetica Neue,Helvetica,sans-serif; font-size:48px; text-anchor:middle;" transform="rotate(0, 1783.64, 2066.49)" x="1783.64" y="2066.49">PC 6</text>
</g>
<g clip-path="url(#clip180)">
<text style="fill:#000000; fill-opacity:1; font-family:Arial,Helvetica Neue,Helvetica,sans-serif; font-size:48px; text-anchor:middle;" transform="rotate(0, 2039.58, 2066.49)" x="2039.58" y="2066.49">PC 7</text>
</g>
<g clip-path="url(#clip180)">
<text style="fill:#000000; fill-opacity:1; font-family:Arial,Helvetica Neue,Helvetica,sans-serif; font-size:48px; text-anchor:middle;" transform="rotate(0, 2295.51, 2066.49)" x="2295.51" y="2066.49">PC 8</text>
</g>
<g clip-path="url(#clip180)">
<text style="fill:#000000; fill-opacity:1; font-family:Arial,Helvetica Neue,Helvetica,sans-serif; font-size:89px; text-anchor:middle;" transform="rotate(0, 1399.74, 2163.26)" x="1399.74" y="2163.26">Component</text>
</g>
<polyline clip-path="url(#clip180)" style="stroke:#000000; stroke-linecap:round; stroke-linejoin:round; stroke-width:4; stroke-opacity:1; fill:none" points="278.211,1992.64 278.211,137.474 "/>
<polyline clip-path="url(#clip180)" style="stroke:#000000; stroke-linecap:round; stroke-linejoin:round; stroke-width:4; stroke-opacity:1; fill:none" points="278.211,1992.64 259.313,1992.64 "/>
<polyline clip-path="url(#clip180)" style="stroke:#000000; stroke-linecap:round; stroke-linejoin:round; stroke-width:4; stroke-opacity:1; fill:none" points="278.211,1550.94 259.313,1550.94 "/>
<polyline clip-path="url(#clip180)" style="stroke:#000000; stroke-linecap:round; stroke-linejoin:round; stroke-width:4; stroke-opacity:1; fill:none" points="278.211,1109.23 259.313,1109.23 "/>
<polyline clip-path="url(#clip180)" style="stroke:#000000; stroke-linecap:round; stroke-linejoin:round; stroke-width:4; stroke-opacity:1; fill:none" points="278.211,667.523 259.313,667.523 "/>
<polyline clip-path="url(#clip180)" style="stroke:#000000; stroke-linecap:round; stroke-linejoin:round; stroke-width:4; stroke-opacity:1; fill:none" points="278.211,225.816 259.313,225.816 "/>
<g clip-path="url(#clip180)">
<text style="fill:#000000; fill-opacity:1; font-family:Arial,Helvetica Neue,Helvetica,sans-serif; font-size:48px; text-anchor:middle;" transform="rotate(0, 172.877, 2010.14)" x="172.877" y="2010.14">0.00</text>
</g>
<g clip-path="url(#clip180)">
<text style="fill:#000000; fill-opacity:1; font-family:Arial,Helvetica Neue,Helvetica,sans-serif; font-size:48px; text-anchor:middle;" transform="rotate(0, 172.877, 1568.44)" x="172.877" y="1568.44">0.25</text>
</g>
<g clip-path="url(#clip180)">
<text style="fill:#000000; fill-opacity:1; font-family:Arial,Helvetica Neue,Helvetica,sans-serif; font-size:48px; text-anchor:middle;" transform="rotate(0, 172.877, 1126.73)" x="172.877" y="1126.73">0.50</text>
</g>
<g clip-path="url(#clip180)">
<text style="fill:#000000; fill-opacity:1; font-family:Arial,Helvetica Neue,Helvetica,sans-serif; font-size:48px; text-anchor:middle;" transform="rotate(0, 172.877, 685.023)" x="172.877" y="685.023">0.75</text>
</g>
<g clip-path="url(#clip180)">
<text style="fill:#000000; fill-opacity:1; font-family:Arial,Helvetica Neue,Helvetica,sans-serif; font-size:48px; text-anchor:middle;" transform="rotate(0, 172.877, 243.316)" x="172.877" y="243.316">1.00</text>
</g>
<g clip-path="url(#clip180)">
<text style="fill:#000000; fill-opacity:1; font-family:Arial,Helvetica Neue,Helvetica,sans-serif; font-size:89px; text-anchor:middle;" transform="rotate(-90, 90.2306, 1065.06)" x="90.2306" y="1065.06">cumulative proportion</text>
</g>
<g clip-path="url(#clip180)">
<text style="fill:#000000; fill-opacity:1; font-family:Arial,Helvetica Neue,Helvetica,sans-serif; font-size:84px; text-anchor:middle;" transform="rotate(0, 1399.74, 73.2)" x="1399.74" y="73.2">cumulative variance explained</text>
</g>
<path clip-path="url(#clip181)" d="M401.582 1184.2 L401.582 1992.64 L606.332 1992.64 L606.332 1184.2 L401.582 1184.2 L401.582 1184.2  Z" fill="#bdd7e7" fill-rule="evenodd" fill-opacity="1"/>
<polyline clip-path="url(#clip181)" style="stroke:#bdd7e7; stroke-linecap:round; stroke-linejoin:round; stroke-width:4; stroke-opacity:1; fill:none" points="401.582,1184.2 401.582,1992.64 606.332,1992.64 606.332,1184.2 401.582,1184.2 "/>
<path clip-path="url(#clip181)" d="M657.519 648.075 L657.519 1992.64 L862.268 1992.64 L862.268 648.075 L657.519 648.075 L657.519 648.075  Z" fill="#bdd7e7" fill-rule="evenodd" fill-opacity="1"/>
<polyline clip-path="url(#clip181)" style="stroke:#bdd7e7; stroke-linecap:round; stroke-linejoin:round; stroke-width:4; stroke-opacity:1; fill:none" points="657.519,648.075 657.519,1992.64 862.268,1992.64 862.268,648.075 657.519,648.075 "/>
<path clip-path="url(#clip181)" d="M913.456 257.878 L913.456 1992.64 L1118.21 1992.64 L1118.21 257.878 L913.456 257.878 L913.456 257.878  Z" fill="#bdd7e7" fill-rule="evenodd" fill-opacity="1"/>
<polyline clip-path="url(#clip181)" style="stroke:#bdd7e7; stroke-linecap:round; stroke-linejoin:round; stroke-width:4; stroke-opacity:1; fill:none" points="913.456,257.878 913.456,1992.64 1118.21,1992.64 1118.21,257.878 913.456,257.878 "/>
<path clip-path="url(#clip181)" d="M1169.39 254.312 L1169.39 1992.64 L1374.14 1992.64 L1374.14 254.312 L1169.39 254.312 L1169.39 254.312  Z" fill="#bdd7e7" fill-rule="evenodd" fill-opacity="1"/>
<polyline clip-path="url(#clip181)" style="stroke:#bdd7e7; stroke-linecap:round; stroke-linejoin:round; stroke-width:4; stroke-opacity:1; fill:none" points="1169.39,254.312 1169.39,1992.64 1374.14,1992.64 1374.14,254.312 1169.39,254.312 "/>
<path clip-path="url(#clip181)" d="M1425.33 250.99 L1425.33 1992.64 L1630.08 1992.64 L1630.08 250.99 L1425.33 250.99 L1425.33 250.99  Z" fill="#bdd7e7" fill-rule="evenodd" fill-opacity="1"/>
<polyline clip-path="url(#clip181)" style="stroke:#bdd7e7; stroke-linecap:round; stroke-linejoin:round; stroke-width:4; stroke-opacity:1; fill:none" points="1425.33,250.99 1425.33,1992.64 1630.08,1992.64 1630.08,250.99 1425.33,250.99 "/>
<path clip-path="url(#clip181)" d="M1681.27 248.102 L1681.27 1992.64 L1886.01 1992.64 L1886.01 248.102 L1681.27 248.102 L1681.27 248.102  Z" fill="#bdd7e7" fill-rule="evenodd" fill-opacity="1"/>
<polyline clip-path="url(#clip181)" style="stroke:#bdd7e7; stroke-linecap:round; stroke-linejoin:round; stroke-width:4; stroke-opacity:1; fill:none" points="1681.27,248.102 1681.27,1992.64 1886.01,1992.64 1886.01,248.102 1681.27,248.102 "/>
<path clip-path="url(#clip181)" d="M1937.2 245.575 L1937.2 1992.64 L2141.95 1992.64 L2141.95 245.575 L1937.2 245.575 L1937.2 245.575  Z" fill="#bdd7e7" fill-rule="evenodd" fill-opacity="1"/>
<polyline clip-path="url(#clip181)" style="stroke:#bdd7e7; stroke-linecap:round; stroke-linejoin:round; stroke-width:4; stroke-opacity:1; fill:none" points="1937.2,245.575 1937.2,1992.64 2141.95,1992.64 2141.95,245.575 1937.2,245.575 "/>
<path clip-path="url(#clip181)" d="M2193.14 243.112 L2193.14 1992.64 L2397.89 1992.64 L2397.89 243.112 L2193.14 243.112 L2193.14 243.112  Z" fill="#bdd7e7" fill-rule="evenodd" fill-opacity="1"/>
<polyline clip-path="url(#clip181)" style="stroke:#bdd7e7; stroke-linecap:round; stroke-linejoin:round; stroke-width:4; stroke-opacity:1; fill:none" points="2193.14,243.112 2193.14,1992.64 2397.89,1992.64 2397.89,243.112 2193.14,243.112 "/>
<circle clip-path="url(#clip181)" style="fill:#009af9; stroke:none; fill-opacity:0" cx="503.957" cy="1184.2" r="2"/>
<circle clip-path="url(#clip181)" style="fill:#009af9; stroke:none; fill-opacity:0" cx="759.894" cy="648.075" r="2"/>
<circle clip-path="url(#clip181)" style="fill:#009af9; stroke:none; fill-opacity:0" cx="1015.83" cy="257.878" r="2"/>
<circle clip-path="url(#clip181)" style="fill:#009af9; stroke:none; fill-opacity:0" cx="1271.77" cy="254.312" r="2"/>
<circle clip-path="url(#clip181)" style="fill:#009af9; stroke:none; fill-opacity:0" cx="1527.7" cy="250.99" r="2"/>
<circle clip-path="url(#clip181)" style="fill:#009af9; stroke:none; fill-opacity:0" cx="1783.64" cy="248.102" r="2"/>
<circle clip-path="url(#clip181)" style="fill:#009af9; stroke:none; fill-opacity:0" cx="2039.58" cy="245.575" r="2"/>
<circle clip-path="url(#clip181)" style="fill:#009af9; stroke:none; fill-opacity:0" cx="2295.51" cy="243.112" r="2"/>
<polyline clip-path="url(#clip181)" style="stroke:#808080; stroke-linecap:round; stroke-linejoin:round; stroke-width:4; stroke-opacity:1; fill:none" stroke-dasharray="16, 10" points="-1964.84,402.499 4764.31,402.499 "/>
</svg>
